<svg xmlns="http://www.w3.org/2000/svg" width="1200" height="900" viewBox="0 0 1200 900" role="img" aria-label="THE FAMILY BEHIND A1 PRO placeholder image">
  <rect width="1200" height="900" fill="#0E2338"/>
  <line x1="-900" y1="0" x2="0" y2="900" stroke="#FFFFFF" stroke-opacity="0.06" stroke-width="2"/><line x1="-750" y1="0" x2="150" y2="900" stroke="#FFFFFF" stroke-opacity="0.06" stroke-width="2"/><line x1="-600" y1="0" x2="300" y2="900" stroke="#FFFFFF" stroke-opacity="0.06" stroke-width="2"/><line x1="-450" y1="0" x2="450" y2="900" stroke="#FFFFFF" stroke-opacity="0.06" stroke-width="2"/><line x1="-300" y1="0" x2="600" y2="900" stroke="#FFFFFF" stroke-opacity="0.06" stroke-width="2"/><line x1="-150" y1="0" x2="750" y2="900" stroke="#FFFFFF" stroke-opacity="0.06" stroke-width="2"/><line x1="0" y1="0" x2="900" y2="900" stroke="#FFFFFF" stroke-opacity="0.06" stroke-width="2"/><line x1="150" y1="0" x2="1050" y2="900" stroke="#FFFFFF" stroke-opacity="0.06" stroke-width="2"/><line x1="300" y1="0" x2="1200" y2="900" stroke="#FFFFFF" stroke-opacity="0.06" stroke-width="2"/><line x1="450" y1="0" x2="1350" y2="900" stroke="#FFFFFF" stroke-opacity="0.06" stroke-width="2"/><line x1="600" y1="0" x2="1500" y2="900" stroke="#FFFFFF" stroke-opacity="0.06" stroke-width="2"/><line x1="750" y1="0" x2="1650" y2="900" stroke="#FFFFFF" stroke-opacity="0.06" stroke-width="2"/><line x1="900" y1="0" x2="1800" y2="900" stroke="#FFFFFF" stroke-opacity="0.06" stroke-width="2"/><line x1="1050" y1="0" x2="1950" y2="900" stroke="#FFFFFF" stroke-opacity="0.06" stroke-width="2"/><line x1="1200" y1="0" x2="2100" y2="900" stroke="#FFFFFF" stroke-opacity="0.06" stroke-width="2"/><line x1="1350" y1="0" x2="2250" y2="900" stroke="#FFFFFF" stroke-opacity="0.06" stroke-width="2"/><line x1="1500" y1="0" x2="2400" y2="900" stroke="#FFFFFF" stroke-opacity="0.06" stroke-width="2"/><line x1="1650" y1="0" x2="2550" y2="900" stroke="#FFFFFF" stroke-opacity="0.06" stroke-width="2"/><line x1="1800" y1="0" x2="2700" y2="900" stroke="#FFFFFF" stroke-opacity="0.06" stroke-width="2"/><line x1="1950" y1="0" x2="2850" y2="900" stroke="#FFFFFF" stroke-opacity="0.06" stroke-width="2"/>
  <rect x="48" y="54" width="1104" height="792" fill="none" stroke="#FFFFFF" stroke-opacity="0.18" stroke-width="2" stroke-dasharray="10 8" rx="10"/>
  <g transform="translate(600 450)" text-anchor="middle" font-family="Arial, Helvetica, sans-serif">
    <rect x="-34" y="-104" width="68" height="34" rx="6" fill="#F26A1B"/>
    <text y="-79" fill="#fff" font-size="22" font-weight="bold">A1</text>
    <text y="8" fill="#FFFFFF" font-size="40" font-weight="bold" letter-spacing="2">THE FAMILY BEHIND A1 PRO</text>
    <text y="56" fill="#FFFFFF" fill-opacity="0.72" font-size="22">Family-owned story — 1200×900 — replace with real photo</text>
  </g>
</svg>
