<svg xmlns="http://www.w3.org/2000/svg" width="800" height="1000" viewBox="0 0 800 1000" role="img" aria-label="OUR CREW ON THE JOB placeholder image">
  <rect width="800" height="1000" fill="#0E2338"/>
  <line x1="-1000" y1="0" x2="0" y2="1000" stroke="#FFFFFF" stroke-opacity="0.06" stroke-width="2"/><line x1="-875" y1="0" x2="125" y2="1000" stroke="#FFFFFF" stroke-opacity="0.06" stroke-width="2"/><line x1="-750" y1="0" x2="250" y2="1000" stroke="#FFFFFF" stroke-opacity="0.06" stroke-width="2"/><line x1="-625" y1="0" x2="375" y2="1000" stroke="#FFFFFF" stroke-opacity="0.06" stroke-width="2"/><line x1="-500" y1="0" x2="500" y2="1000" stroke="#FFFFFF" stroke-opacity="0.06" stroke-width="2"/><line x1="-375" y1="0" x2="625" y2="1000" stroke="#FFFFFF" stroke-opacity="0.06" stroke-width="2"/><line x1="-250" y1="0" x2="750" y2="1000" stroke="#FFFFFF" stroke-opacity="0.06" stroke-width="2"/><line x1="-125" y1="0" x2="875" y2="1000" stroke="#FFFFFF" stroke-opacity="0.06" stroke-width="2"/><line x1="0" y1="0" x2="1000" y2="1000" stroke="#FFFFFF" stroke-opacity="0.06" stroke-width="2"/><line x1="125" y1="0" x2="1125" y2="1000" stroke="#FFFFFF" stroke-opacity="0.06" stroke-width="2"/><line x1="250" y1="0" x2="1250" y2="1000" stroke="#FFFFFF" stroke-opacity="0.06" stroke-width="2"/><line x1="375" y1="0" x2="1375" y2="1000" stroke="#FFFFFF" stroke-opacity="0.06" stroke-width="2"/><line x1="500" y1="0" x2="1500" y2="1000" stroke="#FFFFFF" stroke-opacity="0.06" stroke-width="2"/><line x1="625" y1="0" x2="1625" y2="1000" stroke="#FFFFFF" stroke-opacity="0.06" stroke-width="2"/><line x1="750" y1="0" x2="1750" y2="1000" stroke="#FFFFFF" stroke-opacity="0.06" stroke-width="2"/><line x1="875" y1="0" x2="1875" y2="1000" stroke="#FFFFFF" stroke-opacity="0.06" stroke-width="2"/><line x1="1000" y1="0" x2="2000" y2="1000" stroke="#FFFFFF" stroke-opacity="0.06" stroke-width="2"/><line x1="1125" y1="0" x2="2125" y2="1000" stroke="#FFFFFF" stroke-opacity="0.06" stroke-width="2"/><line x1="1250" y1="0" x2="2250" y2="1000" stroke="#FFFFFF" stroke-opacity="0.06" stroke-width="2"/><line x1="1375" y1="0" x2="2375" y2="1000" stroke="#FFFFFF" stroke-opacity="0.06" stroke-width="2"/><line x1="1500" y1="0" x2="2500" y2="1000" stroke="#FFFFFF" stroke-opacity="0.06" stroke-width="2"/><line x1="1625" y1="0" x2="2625" y2="1000" stroke="#FFFFFF" stroke-opacity="0.06" stroke-width="2"/><line x1="1750" y1="0" x2="2750" y2="1000" stroke="#FFFFFF" stroke-opacity="0.06" stroke-width="2"/>
  <rect x="32" y="60" width="736" height="880" fill="none" stroke="#FFFFFF" stroke-opacity="0.18" stroke-width="2" stroke-dasharray="10 8" rx="10"/>
  <g transform="translate(400 500)" text-anchor="middle" font-family="Arial, Helvetica, sans-serif">
    <rect x="-34" y="-94" width="68" height="34" rx="6" fill="#F26A1B"/>
    <text y="-69" fill="#fff" font-size="22" font-weight="bold">A1</text>
    <text y="7" fill="#FFFFFF" font-size="36" font-weight="bold" letter-spacing="2">OUR CREW ON THE JOB</text>
    <text y="50" fill="#FFFFFF" fill-opacity="0.72" font-size="19">Why-us portrait — 800×1000 — replace with real photo</text>
  </g>
</svg>
